<?xml version="1.0" encoding="UTF-8"?>
<svg version="1.1" xmlns="http://www.w3.org/2000/svg" width="400" height="400">
<path d="M0 0 C132 0 264 0 400 0 C400 132 400 264 400 400 C268 400 136 400 0 400 C0 268 0 136 0 0 Z " fill="#FEFEFE" transform="translate(0,0)"/>
<path d="M0 0 C1.51267466 1.27679997 3.01323141 2.56812512 4.5 3.875 C5.28632813 4.55304688 6.07265625 5.23109375 6.8828125 5.9296875 C8.76757732 7.56490158 10.63965761 9.21212412 12.5 10.875 C11.92149726 13.2720938 11.33837125 15.66782087 10.75 18.0625 C10.57315674 18.7834082 10.39631348 19.50431641 10.21411133 20.24707031 C8.77953046 25.9904518 7.04971924 31.59924251 5.13671875 37.203125 C4.44519777 40.10496766 4.21456812 41.20362922 5.5 43.875 C7.2930882 45.72921621 9.09615628 47.45615219 11 49.1875 C15.66650288 53.63933814 19.41223009 58.2274706 22.75 63.75 C23.32331055 64.67679565 23.32331055 64.67679565 23.90820312 65.62231445 C26.14123393 69.48472731 27.19460896 72.42435742 26.5 76.875 C23.5 79.25 23.5 79.25 20.5 80.875 C21.49 81.555625 21.49 81.555625 22.5 82.25 C23.16 82.78625 23.82 83.3225 24.5 83.875 C24.5 84.535 24.5 85.195 24.5 85.875 C26.15 85.875 27.8 85.875 29.5 85.875 C28.84 87.525 28.18 89.175 27.5 90.875 C30.87526891 90.23335671 30.87526891 90.23335671 34.5 88.875 C35.2425 87.6065625 35.2425 87.6065625 36 86.3125 C38.98975556 83.39748833 39.86958159 83.49771752 43.921875 83.38671875 C46.03180285 83.41989372 48.14144683 83.47943578 50.25 83.5625 C51.32894531 83.58505859 52.40789062 83.60761719 53.51953125 83.63085938 C56.1810935 83.6897435 58.83984228 83.77192999 61.5 83.875 C66.11632526 96.61605771 66.764514 108.07770069 66.625 121.5 C66.61494957 123.18879677 66.60582737 124.87759934 66.59765625 126.56640625 C66.57580739 130.66941594 66.54139154 134.77214282 66.5 138.875 C69.77773504 138.12349977 69.77773504 138.12349977 71.5 134.875 C73.23030291 135.15984846 74.95920714 135.45319938 76.6875 135.75 C78.13189453 135.99363281 78.13189453 135.99363281 79.60546875 136.2421875 C82.5 136.875 82.5 136.875 87.5 138.875 C87.83 143.825 88.16 148.775 88.5 153.875 C87.035625 153.71 85.57125 153.545 84.0625 153.375 C75.59108509 152.17649761 75.59108509 152.17649761 67.5 153.875 C67.5 154.865 67.5 155.855 67.5 156.875 C69.10222896 158.45851361 69.10222896 158.45851361 71.26953125 159.9140625 C72.07052246 160.48995117 72.87151367 161.06583984 73.69677734 161.65917969 C74.55996582 162.26665039 75.4231543 162.87412109 76.3125 163.5 C78.07319342 164.76603633 79.83231786 166.03425761 81.58984375 167.3046875 C82.44175293 167.91924805 83.29366211 168.53380859 84.17138672 169.16699219 C87.88067801 171.88770952 91.39436161 174.80654989 94.92578125 177.75390625 C98.27631176 180.51466205 101.71595137 183.1507148 105.16455078 185.78735352 C110.0461914 189.52041486 114.90094315 193.28722376 119.75 197.0625 C120.48226807 197.63250732 121.21453613 198.20251465 121.96899414 198.78979492 C123.40584461 199.90842218 124.84261346 201.02715429 126.27929688 202.14599609 C130.01835948 205.05717039 133.75920973 207.96604625 137.5 210.875 C134.09745908 210.875 133.04657107 210.22543544 130.18359375 208.49609375 C129.3421582 207.99062012 128.50072266 207.48514648 127.63378906 206.96435547 C126.29912598 206.14668701 126.29912598 206.14668701 124.9375 205.3125 C124.02581055 204.75965332 123.11412109 204.20680664 122.17480469 203.63720703 C117.78205416 200.95449715 113.44022643 198.24301888 109.25 195.25 C107.66853699 194.12237232 106.08497278 192.99768906 104.5 191.875 C103.92894531 191.46975098 103.35789062 191.06450195 102.76953125 190.64697266 C94.39592666 184.79351732 87.77681216 180.83255986 77.390625 180.15625 C74.4356371 179.86873766 72.88379047 179.6203671 70.5 177.875 C68.89453125 175.30078125 68.89453125 175.30078125 67.3125 172.1875 C63.84504495 166.03532765 60.29733209 162.7542237 54.5 158.875 C52.86101046 157.69885469 51.22221315 156.52242932 49.5871582 155.34082031 C47.78447863 154.04231567 45.9736251 152.75604162 44.16015625 151.47265625 C41.80501277 149.80481872 39.45840915 148.12632085 37.12109375 146.43359375 C30.03355963 141.30977688 22.83283381 136.38833619 15.54199219 131.55834961 C7.47919154 126.21362535 -0.50285088 120.75418719 -8.46923828 115.26708984 C-10.23127041 114.05921449 -12.00343209 112.86614151 -13.77734375 111.67578125 C-14.65519531 111.08152344 -15.53304687 110.48726562 -16.4375 109.875 C-17.14777344 109.400625 -17.85804688 108.92625 -18.58984375 108.4375 C-20.5 106.875 -20.5 106.875 -22.22265625 104.58203125 C-25.34724831 100.86789352 -29.04619815 98.34192149 -33 95.5625 C-33.79865479 94.99217041 -34.59730957 94.42184082 -35.42016602 93.83422852 C-40.92399385 89.9234829 -46.50564223 86.16398261 -52.21484375 82.55859375 C-55.07142749 80.45399957 -56.98040734 78.50803698 -58.07568359 75.06567383 C-59.47216293 71.17441812 -60.78933994 69.30146796 -64.39501953 67.13769531 C-68.07836785 65.46256232 -71.78723246 63.95112286 -75.5625 62.5 C-77.50425467 61.72387625 -79.44283229 60.94023615 -81.38096619 60.15512085 C-83.13328349 59.45002427 -84.89277949 58.76284639 -86.65258789 58.07666016 C-89.5 56.875 -89.5 56.875 -92.5 54.875 C-92.7734375 52.51953125 -92.7734375 52.51953125 -92.875 49.6875 C-93.48820074 46.04603099 -93.8682239 44.39891189 -96.7421875 42.015625 C-99.54331161 40.5459443 -102.37845086 39.21018845 -105.26708984 37.92236328 C-109.81077726 35.79111257 -114.16892145 33.2964588 -118.5625 30.875 C-119.52099854 30.35437988 -120.47949707 29.83375977 -121.46704102 29.29736328 C-126.45506308 26.58427066 -131.3512613 23.78621857 -136.1875 20.8125 C-139.80269484 18.63821853 -142.81088113 17.45621894 -146.9375 16.625 C-154.00011474 14.97875023 -158.69024782 10.09052394 -163.88037109 5.33251953 C-166.44881941 3.02114835 -169.12749763 0.86238639 -171.8125 -1.3125 C-172.71613281 -2.04855469 -173.61976563 -2.78460938 -174.55078125 -3.54296875 C-175.19402344 -4.06503906 -175.83726562 -4.58710937 -176.5 -5.125 C-173.5 -6.125 -173.5 -6.125 -171.29858398 -5.29223633 C-170.45626221 -4.85161865 -169.61394043 -4.41100098 -168.74609375 -3.95703125 C-167.3394043 -3.23483398 -167.3394043 -3.23483398 -165.90429688 -2.49804688 C-164.92525391 -1.98306641 -163.94621094 -1.46808594 -162.9375 -0.9375 C-155.90985699 2.7214421 -148.92228097 6.08695052 -141.5 8.875 C-139.7925002 7.59437515 -138.12626404 6.25732443 -136.5 4.875 C-136.5 4.215 -136.5 3.555 -136.5 2.875 C-138.64464786 1.31211967 -138.64464786 1.31211967 -141.3125 -0.1875 C-142.20582031 -0.71472656 -143.09914062 -1.24195312 -144.01953125 -1.78515625 C-146.51796517 -3.22689695 -146.51796517 -3.22689695 -149.5 -4.125 C-149.5 -4.785 -149.5 -5.445 -149.5 -6.125 C-144.4709518 -4.61943855 -140.01330607 -2.46770695 -135.375 -0.0625 C-133.97852911 0.66135876 -132.58014598 1.38154279 -131.1796875 2.09765625 C-130.56851074 2.41484619 -129.95733398 2.73203613 -129.32763672 3.05883789 C-127.4082164 3.91598752 -125.54971178 4.42462885 -123.5 4.875 C-123.17 4.215 -122.84 3.555 -122.5 2.875 C-123.43578995 0.51518187 -124.43347808 -1.82131264 -125.5 -4.125 C-124.0459375 -5.0221875 -124.0459375 -5.0221875 -122.5625 -5.9375 C-119.26947958 -7.83627509 -119.26947958 -7.83627509 -118.5 -11.125 C-118.89397335 -13.76304589 -118.89397335 -13.76304589 -119.5 -16.125 C-118.84 -16.125 -118.18 -16.125 -117.5 -16.125 C-117.17 -17.115 -116.84 -18.105 -116.5 -19.125 C-115.18 -18.465 -113.86 -17.805 -112.5 -17.125 C-112.83 -15.475 -113.16 -13.825 -113.5 -12.125 C-114.49 -11.795 -115.48 -11.465 -116.5 -11.125 C-115.84 -9.475 -115.18 -7.825 -114.5 -6.125 C-112.85 -6.455 -111.2 -6.785 -109.5 -7.125 C-109.30535156 -8.22328125 -109.11070312 -9.3215625 -108.91015625 -10.453125 C-107.5 -14.125 -107.5 -14.125 -104.62109375 -15.796875 C-103.40550781 -16.15265625 -102.18992187 -16.5084375 -100.9375 -16.875 C-100.27202148 -17.07053467 -99.60654297 -17.26606934 -98.92089844 -17.4675293 C-96.78997001 -18.06824864 -94.65249545 -18.60717582 -92.5 -19.125 C-91.4783374 -19.3727417 -91.4783374 -19.3727417 -90.43603516 -19.62548828 C-59.19617966 -26.85077895 -25.30261046 -19.9026631 0 0 Z " fill="#CB323A" transform="translate(262.5,106.125)"/>
<path d="M0 0 C9.46283178 3.60646386 17.43277943 9.68312224 25.60717773 15.53564453 C30.65435678 19.12204759 35.81560889 22.32562174 41.1953125 25.39453125 C52.68990372 31.97430422 61.63966623 40.02470079 71.1171875 49.19384766 C73.40725343 51.39067179 75.75262005 53.51753581 78.125 55.625 C82.26580883 59.31510855 86.32550687 63.08544055 90.375 66.875 C91.66141147 68.07687308 92.94786952 69.27869631 94.234375 70.48046875 C96.07892013 72.20371191 97.92282592 73.92759055 99.76367188 75.65478516 C101.38021152 77.16994066 103.00191624 78.67936115 104.625 80.1875 C105.54539062 81.04730469 106.46578125 81.90710938 107.4140625 82.79296875 C111.98681203 86.69569304 116.06661016 88.47261169 121.91015625 89.8671875 C123.24298754 90.19862012 124.57566545 90.53067007 125.90820312 90.86328125 C127.98893243 91.37307837 130.07066977 91.87693071 132.15551758 92.36962891 C134.18235851 92.85228965 136.20231835 93.35809015 138.22265625 93.8671875 C139.42672119 94.15706543 140.63078613 94.44694336 141.87133789 94.74560547 C145.52513805 96.21054696 146.80780942 97.79123755 149 101 C150.90188301 102.81398085 152.88193973 104.48579092 154.89453125 106.17578125 C157 108 157 108 158.69921875 109.79296875 C162.9731528 114.14373757 167.23942419 115.8806184 173 117.625 C180.88567146 120.03594993 186.06262884 123.89943232 192.1784668 129.33056641 C196.48537119 133.05727436 199.82386779 134.96342214 205.3125 136.5 C212.65103251 138.65986355 215.8289728 142.6168543 220.20703125 148.55078125 C226.70029767 156.9849164 235.19210721 162.20528673 244.375 167.3125 C246.51017294 168.5127376 248.6430947 169.71699123 250.7734375 170.92578125 C251.70591309 171.44567627 252.63838867 171.96557129 253.59912109 172.5012207 C256.45662561 174.28505436 258.48276804 175.78400756 259.8125 178.91015625 C261.53680201 181.94470091 264.16966968 183.52340721 267 185.4375 C268.26749093 186.31819949 269.53438826 187.19975371 270.80078125 188.08203125 C271.47834473 188.5507666 272.1559082 189.01950195 272.85400391 189.50244141 C276.66591217 192.16253757 280.42380634 194.89733044 284.1875 197.625 C285.70961475 198.725289 287.23174971 199.82555005 288.75390625 200.92578125 C293.8424559 204.60823938 298.92449563 208.29957721 304 212 C303.34 212.33 302.68 212.66 302 213 C299.3800537 211.72736575 296.89511644 210.38887029 294.375 208.9375 C293.18922363 208.26509277 293.18922363 208.26509277 291.97949219 207.57910156 C289.31419899 206.06209268 286.65701583 204.53145492 284 203 C283.06124023 202.4632666 282.12248047 201.9265332 281.15527344 201.37353516 C267.34859201 193.47507661 253.83824592 185.19768981 240.46875 176.58251953 C236.83262241 174.25168695 233.16836671 171.9671311 229.5 169.6875 C223.28903674 165.82309338 217.12857564 161.88583452 210.98828125 157.91015625 C210.00214844 157.27980469 209.01601563 156.64945313 208 156 C207.08605469 155.40058594 206.17210937 154.80117188 205.23046875 154.18359375 C204.49441406 153.79300781 203.75835937 153.40242187 203 153 C202.34 153.33 201.68 153.66 201 154 C208.61733277 161.0561813 216.25851461 168.07984601 224 175 C220.49507349 179.31806946 216.56493539 180.52204905 211.4375 182.125 C210.63046631 182.38361816 209.82343262 182.64223633 208.99194336 182.90869141 C199.21821247 185.96916248 190.25883263 187.35717406 180 187 C180.25714522 184.31056352 180.5302612 181.62432453 180.8125 178.9375 C180.91788086 177.80924805 180.91788086 177.80924805 181.02539062 176.65820312 C181.43997085 172.82748188 181.97446951 170.05606697 183.59375 166.5 C185.3741906 162.06868117 185.14014065 158.73711631 184.6875 154.0625 C184.62626953 153.28326172 184.56503906 152.50402344 184.50195312 151.70117188 C184.35028352 149.79946841 184.17734191 147.8994814 184 146 C175.04808058 148.5382488 175.04808058 148.5382488 167 153 C163.64081177 160.13827498 164.70969443 168.41945476 166 176 C162.10993227 174.61219205 159.03441292 172.7847773 155.6875 170.375 C154.80449219 169.74335938 153.92148438 169.11171875 153.01171875 168.4609375 C152.34785156 167.97882813 151.68398437 167.49671875 151 167 C149.30670565 167.84664718 147.61353141 168.69353526 145.92089844 169.54150391 C144.46268244 170.26929997 143.00235348 170.99287644 141.54003906 171.71240234 C138.188439 173.3676314 134.91638374 175.04890762 131.6875 176.9375 C125.38943498 180.55553735 121.3193319 181.6894827 114.19140625 179.9609375 C113.13824219 179.64382813 112.08507812 179.32671875 111 179 C109.81277344 178.66226563 108.62554687 178.32453125 107.40234375 177.9765625 C80.32881827 169.63332507 57.80798337 151.82660264 44 127 C33.09520401 105.99933797 30.12318587 84.33336483 32 61 C34.31 60.01 36.62 59.02 39 58 C37.55649155 51.93726452 35.70861901 48.26650765 31.109375 44.08984375 C28.35680965 41.36276512 26.0399969 38.38553164 23.6875 35.3125 C23.25493896 34.75336914 22.82237793 34.19423828 22.37670898 33.61816406 C20.27694491 30.85816702 18.40055614 28.18026837 17 25 C22.62198173 28.90628159 27.35045013 33.2342881 32.01953125 38.2421875 C33.93260729 40.33190715 33.93260729 40.33190715 37 40 C37.33 39.01 37.66 38.02 38 37 C30.17161143 28.97963057 22.43859034 21.09907099 13.6171875 14.16796875 C8.75277876 10.13849584 4.28313055 5.63936771 0 1 C0 0.67 0 0.34 0 0 Z " fill="#01479D" transform="translate(57,120)"/>
<path d="M0 0 C1.20329956 0.42466553 1.20329956 0.42466553 2.4309082 0.85791016 C5.4072566 1.90113073 8.38746832 2.93216118 11.37084961 3.95507812 C12.66159664 4.40042074 13.95068717 4.85059475 15.23803711 5.30566406 C17.08786347 5.95862782 18.94426439 6.59287141 20.80078125 7.2265625 C21.91622314 7.61408691 23.03166504 8.00161133 24.1809082 8.40087891 C25.1112085 8.59858887 26.04150879 8.79629883 27 9 C27.99 8.34 28.98 7.68 30 7 C28.95125002 9.62187494 28.35068687 10.79371361 25.875 12.25 C25.25625 12.4975 24.6375 12.745 24 13 C24.66 13.45375 25.32 13.9075 26 14.375 C26.66 14.91125 27.32 15.4475 28 16 C28 16.66 28 17.32 28 18 C29.65 18 31.3 18 33 18 C32.34 19.65 31.68 21.3 31 23 C34.37526891 22.35835671 34.37526891 22.35835671 38 21 C38.495 20.154375 38.99 19.30875 39.5 18.4375 C42.48975556 15.52248833 43.36958159 15.62271752 47.421875 15.51171875 C49.53180285 15.54489372 51.64144683 15.60443578 53.75 15.6875 C54.82894531 15.71005859 55.90789062 15.73261719 57.01953125 15.75585938 C59.6810935 15.8147435 62.33984228 15.89692999 65 16 C69.61632526 28.74105771 70.264514 40.20270069 70.125 53.625 C70.11494957 55.31379677 70.10582737 57.00259934 70.09765625 58.69140625 C70.07580739 62.79441594 70.04139154 66.89714282 70 71 C73.27773504 70.24849977 73.27773504 70.24849977 75 67 C76.73030291 67.28484846 78.45920714 67.57819938 80.1875 67.875 C81.15042969 68.03742188 82.11335938 68.19984375 83.10546875 68.3671875 C86 69 86 69 91 71 C91.495 78.425 91.495 78.425 92 86 C90.535625 85.835 89.07125 85.67 87.5625 85.5 C84.06370991 85.16204868 80.5762032 84.86558234 77.0625 84.75 C76.35222656 84.72421875 75.64195312 84.6984375 74.91015625 84.671875 C72.45047155 85.09439752 71.5753509 86.12340645 70 88 C67.3209983 86.72092638 64.90403513 85.32466897 62.48828125 83.6015625 C61.8219165 83.12855713 61.15555176 82.65555176 60.46899414 82.16821289 C59.75735107 81.65895264 59.04570801 81.14969238 58.3125 80.625 C56.77611866 79.53244381 55.23965815 78.43999893 53.703125 77.34765625 C52.92001953 76.78965332 52.13691406 76.23165039 51.33007812 75.65673828 C48.44267672 73.60373054 45.54482687 71.56583611 42.64648438 69.52832031 C35.2328891 64.31379056 27.86743472 59.03556304 20.52636719 53.71948242 C16.53543682 50.82957319 12.53798417 47.94979248 8.5234375 45.09277344 C6.27309993 43.49107769 4.02661445 41.88404872 1.78125 40.27539062 C0.51917055 39.37173067 -0.74395649 38.46953297 -2.0078125 37.56835938 C-4.07226693 36.09347292 -6.13043775 34.61017364 -8.1875 33.125 C-9.14209106 32.44606689 -9.14209106 32.44606689 -10.1159668 31.75341797 C-13.26071543 29.47058865 -16.04329863 27.40110274 -18 24 C-18 23.01 -18 22.02 -18 21 C-13.27031178 22.60699831 -9.46296739 25.20549104 -5.375 28 C-4.70726562 28.45117188 -4.03953125 28.90234375 -3.3515625 29.3671875 C-2.11233138 30.20490774 -0.8743805 31.04452746 0.36181641 31.88671875 C1.90189849 32.93333191 3.4506759 33.96711727 5 35 C4.81584568 32.05908413 4.81584568 32.05908413 4 29 C2.68747118 28.29325371 1.35036127 27.6314639 0 27 C-1.78125 25.4140625 -1.78125 25.4140625 -3.5 23.625 C-4.0671875 23.03976563 -4.634375 22.45453125 -5.21875 21.8515625 C-6.10046875 20.93503906 -6.10046875 20.93503906 -7 20 C-8.33098799 18.66432544 -9.66373949 17.33039972 -11 16 C-10.37351563 15.43152344 -9.74703125 14.86304688 -9.1015625 14.27734375 C-8.28429687 13.50519531 -7.46703125 12.73304688 -6.625 11.9375 C-5.81289062 11.18339844 -5.00078125 10.42929688 -4.1640625 9.65234375 C-1.51801005 6.40925781 -0.90150718 4.04687564 0 0 Z " fill="#FDF2F3" transform="translate(259,174)"/>
<path d="M0 0 C1.61841797 0.03383789 1.61841797 0.03383789 3.26953125 0.06835938 C5.9310935 0.1272435 8.58984228 0.20942999 11.25 0.3125 C15.10713913 10.958204 16.61559384 20.73526057 16.5625 32.0625 C16.56121094 33.20251465 16.55992187 34.3425293 16.55859375 35.51708984 C16.46432048 43.79074793 15.6783271 51.36261963 13.25 59.3125 C12.17621094 58.76980469 11.10242188 58.22710937 9.99609375 57.66796875 C8.55995051 56.94520385 7.1237495 56.22255372 5.6875 55.5 C4.98302734 55.14357422 4.27855469 54.78714844 3.55273438 54.41992188 C0.33122328 52.80174349 -2.86302083 51.2656002 -6.1953125 49.8828125 C-10.69054102 47.89700825 -14.84781248 45.51782066 -19.0625 43 C-20.27776367 42.30874023 -20.27776367 42.30874023 -21.51757812 41.60351562 C-25.11657388 39.44891284 -27.33510452 38.11393102 -29.29296875 34.33203125 C-30.14536166 28.70040972 -30.23896849 25.23659995 -26.828125 20.52734375 C-26.21453125 19.66689453 -25.6009375 18.80644531 -24.96875 17.91992188 C-24.3190625 17.03884766 -23.669375 16.15777344 -23 15.25 C-22.36578125 14.36505859 -21.7315625 13.48011719 -21.078125 12.56835938 C-19.85243494 10.86643766 -18.60920019 9.17697952 -17.34667969 7.50219727 C-15.62072717 5.23004014 -15.62072717 5.23004014 -14.03125 2.2109375 C-10.0086515 -1.13663591 -5.02518283 -0.19796175 0 0 Z " fill="#CA323B" transform="translate(312.75,189.6875)"/>
<path d="M0 0 C11.84560881 5.88232966 22.87179113 12.87835432 34 20 C37.74884431 22.39764738 41.49865394 24.79376851 45.25 27.1875 C46.17031006 27.7748291 47.09062012 28.3621582 48.03881836 28.96728516 C55.61101613 33.78466587 63.26657454 38.44667473 71 43 C70.835 43.86625 70.67 44.7325 70.5 45.625 C70.02781452 48.81225199 69.92344882 51.78485027 70 55 C66.60321197 54.91879294 63.20817618 54.80597981 59.8125 54.6875 C58.85279297 54.66494141 57.89308594 54.64238281 56.90429688 54.61914062 C47.87668503 54.2755291 47.87668503 54.2755291 44 51 C40.72031738 46.26268066 39.46584759 42.70663301 39 37 C37.02 37.66 35.04 38.32 33 39 C33.495 41.475 33.495 41.475 34 44 C33.01 44 32.02 44 31 44 C31 43.34 31 42.68 31 42 C29.515 42.061875 29.515 42.061875 28 42.125 C23.76164134 42.1423348 20.06806015 41.14191162 16 40 C15.01 36.535 15.01 36.535 14 33 C15.485 32.505 15.485 32.505 17 32 C16.01 30.68 15.02 29.36 14 28 C16.64 26.68 19.28 25.36 22 24 C21.29746094 23.29875 20.59492188 22.5975 19.87109375 21.875 C17.93967762 19.94426371 16.01619021 18.00603324 14.09765625 16.0625 C13.08596108 15.0416433 12.07424209 14.0208102 11.0625 13 C10.56298828 12.49210937 10.06347656 11.98421875 9.54882812 11.4609375 C6.19128175 8.08172954 2.70079775 5.0003487 -1 2 C-0.67 1.34 -0.34 0.68 0 0 Z " fill="#F3FAFC" transform="translate(258,272)"/>
<path d="M0 0 C13.61522437 12.3774767 21.07325932 30.94298159 23 49 C23.14229145 53.33988908 23.124197 57.66000486 23 62 C21.56206608 61.68950274 20.1246682 61.3765224 18.6875 61.0625 C17.88699219 60.88847656 17.08648437 60.71445313 16.26171875 60.53515625 C14 60 14 60 11 59 C9.90075873 56.23696147 8.93318898 53.50574204 8 50.6875 C5.13016802 42.590876 1.39192997 37.12614648 -4.7421875 31.1875 C-7 29 -7 29 -8 27 C-7.70214844 25.0480957 -7.70214844 25.0480957 -7.109375 22.67578125 C-6.89410156 21.81146484 -6.67882812 20.94714844 -6.45703125 20.05664062 C-6.22371094 19.15107422 -5.99039062 18.24550781 -5.75 17.3125 C-5.53214844 16.42626953 -5.31429688 15.54003906 -5.08984375 14.62695312 C-3.79316682 9.5047001 -2.22868294 4.79166831 0 0 Z " fill="#C8333C" transform="translate(287,122)"/>
<path d="M0 0 C0.33 0.99 0.66 1.98 1 3 C2.65293133 3.70002875 4.32372387 4.35787809 6 5 C8.55467703 6.51885827 11.01646117 8.18049432 13.5 9.8125 C19.60411583 13.74370239 25.40533899 16.57658417 32.26953125 18.97265625 C35.62425938 20.23487871 38.17487004 21.82061403 41 24 C41.66 22.02 42.32 20.04 43 18 C43.99 18.99 44.98 19.98 46 21 C46.433125 20.29875 46.86625 19.5975 47.3125 18.875 C50.63537263 16.55671677 51.5514199 16.93367578 55.4375 17.625 C59.23501115 18.43837513 62.34173071 19.53669228 66 21 C66.495 28.425 66.495 28.425 67 36 C65.535625 35.835 64.07125 35.67 62.5625 35.5 C59.06370991 35.16204868 55.5762032 34.86558234 52.0625 34.75 C51.35222656 34.72421875 50.64195312 34.6984375 49.91015625 34.671875 C47.45047155 35.09439752 46.5753509 36.12340645 45 38 C42.3209983 36.72092638 39.90403513 35.32466897 37.48828125 33.6015625 C36.82135254 33.1281543 36.15442383 32.65474609 35.46728516 32.16699219 C34.75620605 31.65813477 34.04512695 31.14927734 33.3125 30.625 C31.7852313 29.53895695 30.25788531 28.45302258 28.73046875 27.3671875 C27.55750244 26.5313916 27.55750244 26.5313916 26.36083984 25.67871094 C23.34342838 23.53313481 20.31568048 21.40244761 17.28759766 19.27197266 C10.14438164 14.24478721 3.04066821 9.17025312 -4 4 C-3.01 3.67 -2.02 3.34 -1 3 C-0.67 2.01 -0.34 1.02 0 0 Z " fill="#FDF0F1" transform="translate(284,224)"/>
<path d="M0 0 C6.1979372 3.33929678 12.36575087 6.73267034 18.5 10.1875 C19.09893066 10.52007812 19.69786133 10.85265625 20.31494141 11.1953125 C27.18763703 15.09016589 27.18763703 15.09016589 28.8125 18.91015625 C30.53680201 21.94470091 33.16966968 23.52340721 36 25.4375 C37.26749093 26.31819949 38.53438826 27.19975371 39.80078125 28.08203125 C40.47834473 28.5507666 41.1559082 29.01950195 41.85400391 29.50244141 C45.66591217 32.16253757 49.42380634 34.89733044 53.1875 37.625 C54.70961475 38.725289 56.23174971 39.82555005 57.75390625 40.92578125 C62.8424559 44.60823938 67.92449563 48.29957721 73 52 C72.01 52.495 72.01 52.495 71 53 C68.3800537 51.72736575 65.89511644 50.38887029 63.375 48.9375 C62.58448242 48.48922852 61.79396484 48.04095703 60.97949219 47.57910156 C58.31419899 46.06209268 55.65701583 44.53145492 53 43 C52.06124023 42.4632666 51.12248047 41.9265332 50.15527344 41.37353516 C36.36887032 33.48667732 22.87892164 25.22198564 9.53027344 16.61767578 C4.91206882 13.6651262 0.24545644 10.78889005 -4.43164062 7.93066406 C-5.97085771 6.97987514 -7.48835776 5.99404554 -9 5 C-9 4.67 -9 4.34 -9 4 C-7.88625 3.896875 -6.7725 3.79375 -5.625 3.6875 C-4.42875 3.460625 -3.2325 3.23375 -2 3 C-1.34 2.01 -0.68 1.02 0 0 Z " fill="#064695" transform="translate(288,280)"/>
<path d="M0 0 C9.15048279 2.56303449 18.06006196 5.79531223 27 9 C26.40336514 12.09893927 25.4698686 14.00292174 23.49609375 16.453125 C23.00302734 17.071875 22.50996094 17.690625 22.00195312 18.328125 C21.48568359 18.96234375 20.96941406 19.5965625 20.4375 20.25 C19.91736328 20.8996875 19.39722656 21.549375 18.86132812 22.21875 C17.580156 23.81727669 16.29085995 25.40928626 15 27 C7.82077702 23.80021057 0.09591631 16.74914145 -4 10 C-4.09506304 6.00735225 -2.15797659 3.28387742 0 0 Z " fill="#CA323A" transform="translate(263,183)"/>
<path d="M0 0 C6.27465179 1.6807103 11.67026518 4.2842229 17.3125 7.4375 C18.35277344 8.01262329 18.35277344 8.01262329 19.4140625 8.59936523 C28.19647278 13.60555226 28.19647278 13.60555226 29.6809082 18.02905273 C30.18685456 20.00356755 30.60025535 22.00127673 31 24 C27.60321197 23.91879294 24.20817618 23.80597981 20.8125 23.6875 C19.37293945 23.65366211 19.37293945 23.65366211 17.90429688 23.61914062 C8.87668503 23.2755291 8.87668503 23.2755291 5 20 C0.49725777 13.496039 0 7.81354702 0 0 Z " fill="#02479C" transform="translate(297,303)"/>
<path d="M0 0 C1.73030291 0.28484846 3.45920714 0.57819938 5.1875 0.875 C6.15042969 1.03742188 7.11335938 1.19984375 8.10546875 1.3671875 C11 2 11 2 16 4 C16.33 8.95 16.66 13.9 17 19 C14.26869707 18.74403446 11.54098536 18.47083413 8.8125 18.1875 C8.04357422 18.11724609 7.27464844 18.04699219 6.48242188 17.97460938 C1.94669367 17.48794326 -1.21907997 16.76560283 -5 14 C-4.54857225 12.22739369 -4.08859477 10.4569632 -3.625 8.6875 C-3.36976563 7.70136719 -3.11453125 6.71523437 -2.8515625 5.69921875 C-2 3 -2 3 0 0 Z " fill="#C4353D" transform="translate(334,241)"/>
<path d="M0 0 C3.78356976 0.6103081 6.83558493 1.71766821 10.2734375 3.3984375 C11.2634375 3.87796875 12.2534375 4.3575 13.2734375 4.8515625 C14.80871094 5.60566406 14.80871094 5.60566406 16.375 6.375 C25.60115162 10.87729726 25.60115162 10.87729726 35 15 C35.99 14.01 36.98 13.02 38 12 C38.66 12.33 39.32 12.66 40 13 C39.835 14.11375 39.67 15.2275 39.5 16.375 C38.9544542 19.72032033 38.9544542 19.72032033 39 22 C39.66 22 40.32 22 41 22 C41.495 24.475 41.495 24.475 42 27 C36.42253521 25.22535211 36.42253521 25.22535211 34.125 24 C31.80898981 22.80608645 31.80898981 22.80608645 28.26171875 22.25390625 C23.87838665 21.17787147 20.95836511 18.96989147 17.6875 15.9375 C16.57382897 14.94819081 15.45922796 13.95992762 14.34375 12.97265625 C13.79074219 12.47652832 13.23773438 11.98040039 12.66796875 11.46923828 C9.19929644 8.41384162 5.55502705 5.57050671 1.94921875 2.6796875 C1.30597656 2.12539062 0.66273437 1.57109375 0 1 C0 0.67 0 0.34 0 0 Z " fill="#C4353C" transform="translate(86,100)"/>
<path d="M0 0 C9.45609634 3.60389686 17.42666899 9.6727825 25.59179688 15.52685547 C30.73742866 19.18711488 35.94453453 22.4610018 41.484375 25.5 C44.20138296 27.12007928 46.57378598 28.97524585 49 31 C47.9275 30.79375 46.855 30.5875 45.75 30.375 C42.12380904 30.0123809 40.91708924 30.01637931 38 32 C37.34 31.34 36.68 30.68 36 30 C36 29.67 36 29.34 36 29 C35.34 29 34.68 29 34 29 C34.495 30.98 34.495 30.98 35 33 C30.04091237 28.82985813 25.2463836 24.49912036 20.484375 20.10693359 C17.61124881 17.46153326 14.7110703 14.85890365 11.75 12.3125 C7.64235304 8.74851219 3.67715121 5.00965956 0 1 C0 0.67 0 0.34 0 0 Z " fill="#084592" transform="translate(57,120)"/>
<path d="M0 0 C4.06809575 1.36561518 6.54196753 3.16570127 9.625 6.125 C13.86282212 10.05075863 18.25105906 13.43869211 22.95703125 16.77734375 C26.51536199 19.37643257 29.94627156 22.10850047 33.375 24.875 C40.17033453 30.35676743 47.05654056 35.70751489 54 41 C50.59745908 41 49.54657107 40.35043544 46.68359375 38.62109375 C45.8421582 38.11562012 45.00072266 37.61014648 44.13378906 37.08935547 C43.24401367 36.54424316 42.35423828 35.99913086 41.4375 35.4375 C40.52581055 34.88465332 39.61412109 34.33180664 38.67480469 33.76220703 C34.28205416 31.07949715 29.94022643 28.36801888 25.75 25.375 C24.16853699 24.24737232 22.58497278 23.12268906 21 22 C20.42894531 21.59475098 19.85789062 21.18950195 19.26953125 20.77197266 C9.9249236 14.23975073 2.65503596 10.40064186 -9 10 C-9 9.67 -9 9.34 -9 9 C-4.05 8.67 0.9 8.34 6 8 C4.02 7.01 2.04 6.02 0 5 C0.33 4.01 0.66 3.02 1 2 C0.67 1.34 0.34 0.68 0 0 Z " fill="#B93A42" transform="translate(346,276)"/>
<path d="M0 0 C0.22114415 2.79119779 0.42743301 5.5821212 0.625 8.375 C0.68945312 9.1690625 0.75390625 9.963125 0.8203125 10.78125 C0.96058587 12.85028224 0.98758237 14.92625536 1 17 C0.34 17.66 -0.32 18.32 -1 19 C-1 13.06 -1 7.12 -1 1 C-6.94078186 3.22968194 -6.94078186 3.22968194 -8.375 6.6875 C-8.58125 7.450625 -8.7875 8.21375 -9 9 C-8.34 9 -7.68 9 -7 9 C-7 11.64 -7 14.28 -7 17 C-9.2747813 18.38111722 -10.50171361 19.05694702 -13.1875 18.75 C-15 18 -15 18 -16 16 C-16.66 16.66 -17.32 17.32 -18 18 C-18.33 18 -18.66 18 -19 18 C-19.33 19.65 -19.66 21.3 -20 23 C-20.33 23 -20.66 23 -21 23 C-21.23004139 17.36398597 -21.27446747 12.27262913 -19 7 C-14.42552177 2.99733155 -6.08662064 -2.02887355 0 0 Z " fill="#E8F5FD" transform="translate(242,266)"/>
<path d="M0 0 C3.87338092 1.6100752 6.67084224 4.23088066 9.6875 7.0625 C10.20989258 7.5469458 10.73228516 8.0313916 11.27050781 8.53051758 C15.96133726 12.90581076 20.51552602 17.41360616 25 22 C24.34 23.32 23.68 24.64 23 26 C19.3021137 25.43549966 17.75313096 24.02767305 15.25 21.3125 C11.99399489 17.91703844 8.64186983 15.12950195 4.83203125 12.38671875 C2.29661134 10.46758427 0.17683171 8.3128837 -2 6 C-0.68 6 0.64 6 2 6 C2 5.01 2 4.02 2 3 C1.34 2.67 0.68 2.34 0 2 C0 1.34 0 0.68 0 0 Z " fill="#F0FAFD" transform="translate(71,135)"/>
<path d="M0 0 C0.8765625 0.5053125 1.753125 1.010625 2.65625 1.53125 C3.35492188 1.88445312 4.05359375 2.23765625 4.7734375 2.6015625 C6.40104167 3.578125 8.02864583 4.5546875 9.65625 5.53125 C2.43724335 10.3439211 -8.67730253 12.70355558 -17.34375 13.53125 C-18.68348191 13.22464392 -20.01826936 12.89455424 -21.34375 12.53125 C-18.49379448 10.28899901 -15.61056465 8.09416558 -12.71875 5.90625 C-11.91050781 5.26945312 -11.10226563 4.63265625 -10.26953125 3.9765625 C-4.17124874 -0.5847545 -4.17124874 -0.5847545 0 0 Z " fill="#0B458F" transform="translate(208.34375,294.46875)"/>
<path d="M0 0 C2.72003159 3.62670879 4.42948217 6.9927078 6.125 11.125 C7.96215126 15.60775573 7.96215126 15.60775573 10 20 C-4.41001871 14.37721593 -4.41001871 14.37721593 -7.6015625 9.60546875 C-8.6875 7.125 -8.6875 7.125 -10 3 C-5.05 1.515 -5.05 1.515 0 0 Z " fill="#CA3138" transform="translate(358,263)"/>
<path d="M0 0 C3.50935186 0 6.56484998 0.37542727 10 1 C10 1.66 10 2.32 10 3 C11.32 3.33 12.64 3.66 14 4 C14 4.99 14 5.98 14 7 C14.61875 7.28875 15.2375 7.5775 15.875 7.875 C18 9 18 9 20 11 C16.57767028 12.14077657 13.91326783 12.09815117 10.3125 12.0625 C8.54326172 12.04896484 8.54326172 12.04896484 6.73828125 12.03515625 C5.38283203 12.01775391 5.38283203 12.01775391 4 12 C4 11.34 4 10.68 4 10 C3.34 10 2.68 10 2 10 C-1.07692308 4.58461538 -1.07692308 4.58461538 -0.6875 1.625 C-0.460625 1.08875 -0.23375 0.5525 0 0 Z " fill="#CC3138" transform="translate(333,273)"/>
<path d="M0 0 C1.42647191 2.8966671 2.4190598 5.8226128 3 9 C2.67 9.66 2.34 10.32 2 11 C-2.95 10.01 -7.9 9.02 -13 8 C-13.66 5.69 -14.32 3.38 -15 1 C-13.00458132 0.31974363 -11.00382009 -0.34490497 -9 -1 C-8.319375 -1.2475 -7.63875 -1.495 -6.9375 -1.75 C-3.87409278 -2.14527835 -2.59062172 -1.72708115 0 0 Z " fill="#054796" transform="translate(287,304)"/>
<path d="M0 0 C10.11600438 5.81174369 20.06189518 11.8907542 30 18 C29.83628906 18.93070312 29.67257812 19.86140625 29.50390625 20.8203125 C29.05964687 23.6236236 28.91681515 26.17171503 29 29 C27 26 27 26 26.6875 22.9375 C26.460625 21.968125 26.23375 20.99875 26 20 C24.35797935 19.27474805 22.68285422 18.62467904 21 18 C17.57288322 16.19199351 14.23791292 14.21488329 10.8828125 12.27734375 C7.32495688 10.2433244 3.87179572 8.39142659 0 7 C0.99 6.67 1.98 6.34 3 6 C3 5.34 3 4.68 3 4 C2.01 3.67 1.02 3.34 0 3 C0 2.01 0 1.02 0 0 Z " fill="#E4F5FE" transform="translate(299,297)"/>
<path d="M0 0 C10.70214106 -0.56108312 10.70214106 -0.56108312 15 3 C18.34659698 6.10172403 21.17418371 9.4274035 24 13 C21.93571843 12.74309819 19.87358906 12.46886954 17.8125 12.1875 C16.66394531 12.03667969 15.51539063 11.88585937 14.33203125 11.73046875 C8.88782954 10.53695677 5.86882176 8.32553785 2.6875 3.8125 C1.91986328 2.73935547 1.91986328 2.73935547 1.13671875 1.64453125 C0.76160156 1.10183594 0.38648438 0.55914062 0 0 Z " fill="#BB3940" transform="translate(291,262)"/>
<path d="M0 0 C3.9492568 0.55105909 7.34920174 1.38935371 11 3 C10.40336514 6.09893927 9.4698686 8.00292174 7.49609375 10.453125 C7.00302734 11.071875 6.50996094 11.690625 6.00195312 12.328125 C5.48568359 12.96234375 4.96941406 13.5965625 4.4375 14.25 C3.65729492 15.22453125 3.65729492 15.22453125 2.86132812 16.21875 C1.580156 17.81727669 0.29085995 19.40928626 -1 21 C-4.76488042 19.27845212 -7.15063897 17.00765886 -10 14 C-6.7 14 -3.4 14 0 14 C0 13.01 0 12.02 0 11 C1.32 11.33 2.64 11.66 4 12 C3.55296014 7.52116304 3.55296014 7.52116304 1 4 C1.33 3.34 1.66 2.68 2 2 C1.34 2 0.68 2 0 2 C0 1.34 0 0.68 0 0 Z " fill="#C23640" transform="translate(279,189)"/>
<path d="M0 0 C1.65 0 3.3 0 5 0 C5.061875 0.928125 5.061875 0.928125 5.125 1.875 C5.84087955 4.32151193 5.84087955 4.32151193 8.8125 5.1875 C11.8276148 6.00377438 11.8276148 6.00377438 14.25 6.375 C16.72765472 7.25987668 16.86926086 8.67200766 18 11 C20.53442406 13.22816986 20.53442406 13.22816986 23 15 C22.34 15 21.68 15 21 15 C20.67 15.99 20.34 16.98 20 18 C19.67 16.68 19.34 15.36 19 14 C18.01 14.33 17.02 14.66 16 15 C16 14.34 16 13.68 16 13 C15.01 12.95875 14.02 12.9175 13 12.875 C8.08046842 12.16216991 4.37283245 9.57849297 1 6 C0 2.625 0 2.625 0 0 Z " fill="#C0373F" transform="translate(309,254)"/>
<path d="M0 0 C5.16881457 3.32222053 9.98147225 7.01987955 14.8125 10.8125 C15.56853516 11.40353516 16.32457031 11.99457031 17.10351562 12.60351562 C18.62510331 13.7930262 20.14610427 14.98328768 21.66650391 16.17431641 C25.43765654 19.12479552 29.21879153 22.06242564 33 25 C29.59745908 25 28.54657107 24.35043544 25.68359375 22.62109375 C24.84086914 22.11481445 23.99814453 21.60853516 23.12988281 21.08691406 C22.24139648 20.54260742 21.35291016 19.99830078 20.4375 19.4375 C19.53741211 18.8919043 18.63732422 18.34630859 17.70996094 17.78417969 C11.63900925 14.07744951 5.70071924 10.26053754 0 6 C0.66 5.67 1.32 5.34 2 5 C2.66 5.33 3.32 5.66 4 6 C3.34 5.38125 2.68 4.7625 2 4.125 C0 2 0 2 0 0 Z " fill="#B63B43" transform="translate(367,292)"/>
<path d="M0 0 C5.70822483 3.1094202 10.93331946 6.67956534 16.1875 10.5 C16.98091797 11.06847656 17.77433594 11.63695312 18.59179688 12.22265625 C22.33411411 14.93120155 25.87680783 17.56533045 29 21 C22.94461316 19.36231608 17.82412711 16.24258988 12.4375 13.125 C11.50486328 12.59519531 10.57222656 12.06539063 9.61132812 11.51953125 C5.13722897 8.94923623 0.89995195 6.4134886 -3 3 C-2.01 3 -1.02 3 0 3 C0 2.01 0 1.02 0 0 Z " fill="#0C4589" transform="translate(332,312)"/>
<path d="M0 0 C0.33 0 0.66 0 1 0 C0.98839844 1.00160156 0.97679687 2.00320313 0.96484375 3.03515625 C0.95545602 4.37760228 0.94635688 5.72005036 0.9375 7.0625 C0.92589844 8.37347656 0.91429687 9.68445313 0.90234375 11.03515625 C0.99547665 14.8163519 1.38551274 18.27920707 2 22 C-3.08938811 20.40956621 -6.87456643 17.2553049 -11 14 C-9.63016497 10.83884224 -9.0109362 10.0072908 -6 8 C-6 8.66 -6 9.32 -6 10 C-2.65756352 8.10595266 -2.02002851 7.05908409 -0.75 3.3125 C-0.5025 2.219375 -0.255 1.12625 0 0 Z " fill="#064697" transform="translate(221,274)"/>
<path d="M0 0 C2.69873825 1.95945623 5.35738555 3.96549987 8 6 C8.75152344 6.57621094 9.50304687 7.15242187 10.27734375 7.74609375 C15.76862813 12.20465918 15.76862813 12.20465918 17 16.4375 C17 17.283125 17 18.12875 17 19 C14.30326081 17.70369101 11.81034386 16.2862657 9.328125 14.6171875 C8.33232422 13.95009766 8.33232422 13.95009766 7.31640625 13.26953125 C6.63449219 12.80933594 5.95257813 12.34914062 5.25 11.875 C4.55261719 11.40707031 3.85523438 10.93914062 3.13671875 10.45703125 C1.42307474 9.30677705 -0.28865316 8.15366914 -2 7 C-1.34 6.67 -0.68 6.34 0 6 C0.66 6.33 1.32 6.66 2 7 C2 6.01 2 5.02 2 4 C1.01 3.34 0.02 2.68 -1 2 C-0.67 1.34 -0.34 0.68 0 0 Z " fill="#BD383F" transform="translate(247,190)"/>
<path d="M0 0 C0 0.33 0 0.66 0 1 C-1.07636719 1.04898438 -2.15273437 1.09796875 -3.26171875 1.1484375 C-18.06498905 0.82342601 -18.06498905 0.82342601 -31 5 C-32.68183948 5.23287008 -34.3712416 5.41264166 -36.0625 5.5625 C-36.98160156 5.64628906 -37.90070313 5.73007813 -38.84765625 5.81640625 C-39.55792969 5.87699219 -40.26820313 5.93757813 -41 6 C-41 6.66 -41 7.32 -41 8 C-42.11375 8.391875 -43.2275 8.78375 -44.375 9.1875 C-47.56003172 10.5121234 -47.56003172 10.5121234 -49.1875 13.625 C-49.455625 14.40875 -49.72375 15.1925 -50 16 C-52.05078125 16.6484375 -52.05078125 16.6484375 -54 17 C-53.7467638 13.47771471 -53.0109812 10.92551055 -51 8 C-46.25465482 5.4099112 -41.23217113 4.1895628 -36 3 C-35.3203418 2.83773926 -34.64068359 2.67547852 -33.94042969 2.50830078 C-22.62010679 -0.11470087 -11.57657344 -0.34310371 0 0 Z " fill="#B53B43" transform="translate(206,84)"/>
<path d="M0 0 C5.62198173 3.90628159 10.35045013 8.2342881 15.01953125 13.2421875 C16.93260729 15.33190715 16.93260729 15.33190715 20 15 C20.66 14.34 21.32 13.68 22 13 C21.67 14.32 21.34 15.64 21 17 C19.68 17.33 18.36 17.66 17 18 C17 18.66 17 19.32 17 20 C17.66 20 18.32 20 19 20 C19.33 21.32 19.66 22.64 20 24 C14.9362606 20.17406357 11.08356237 15.8410851 7.1875 10.875 C6.70756592 10.2651123 6.22763184 9.65522461 5.7331543 9.02685547 C3.49878825 6.13243481 1.45557375 3.38231589 0 0 Z " fill="#0C458B" transform="translate(74,145)"/>
<path d="M0 0 C0.77085937 0.46019531 1.54171875 0.92039062 2.3359375 1.39453125 C3.11195313 1.84183594 3.88796875 2.28914063 4.6875 2.75 C6.7109375 4.20703125 6.7109375 4.20703125 8.7109375 7.20703125 C6.4009375 6.87703125 4.0909375 6.54703125 1.7109375 6.20703125 C1.7109375 6.86703125 1.7109375 7.52703125 1.7109375 8.20703125 C2.3709375 8.20703125 3.0309375 8.20703125 3.7109375 8.20703125 C3.7109375 8.86703125 3.7109375 9.52703125 3.7109375 10.20703125 C-1.1165424 8.7941103 -5.0052984 6.77728971 -9.2890625 4.20703125 C-4.1557449 -1.43961811 -4.1557449 -1.43961811 0 0 Z " fill="#F0F9FD" transform="translate(209.2890625,286.79296875)"/>
<path d="M0 0 C4.21654356 1.48635116 7.62478605 3.61249159 11.3125 6.125 C12.38113281 6.84945312 13.44976562 7.57390625 14.55078125 8.3203125 C15.76314453 9.15175781 15.76314453 9.15175781 17 10 C15.6875 11.5 15.6875 11.5 14 13 C10.25805947 13 9.3230581 11.98358659 6.4375 9.6875 C5.65246094 9.07261719 4.86742187 8.45773438 4.05859375 7.82421875 C2 6 2 6 0 3 C0 2.01 0 1.02 0 0 Z " fill="#FEEAEA" transform="translate(241,195)"/>
<path d="M0 0 C2.9555377 2.75170751 5.11563315 5.41970299 7 9 C7 9.66 7 10.32 7 11 C1.80310881 11.70466321 1.80310881 11.70466321 -1 11 C-3.21956005 8.59591596 -4.62753981 5.95606811 -6 3 C-3 1 -3 1 0 0 Z " fill="#084594" transform="translate(295,321)"/>
<path d="M0 0 C3.47598164 0.57977557 6.29104698 1.46521105 9.42578125 3.06640625 C10.22177734 3.46923828 11.01777344 3.87207031 11.83789062 4.28710938 C12.65451172 4.70798828 13.47113281 5.12886719 14.3125 5.5625 C15.14845703 5.98724609 15.98441406 6.41199219 16.84570312 6.84960938 C18.89996426 7.8943479 20.95120292 8.94459762 23 10 C19.86650268 11.04449911 19.01031744 10.93423645 16 10 C16.33 11.32 16.66 12.64 17 14 C12.80912324 12.26763263 9.65136876 9.3566967 6.25 6.4375 C5.64800781 5.93025391 5.04601562 5.42300781 4.42578125 4.90039062 C2.92859272 3.62557363 1.46140412 2.31568608 0 1 C0 0.67 0 0.34 0 0 Z " fill="#B73B43" transform="translate(86,100)"/>
<path d="M0 0 C0.66 0.99 1.32 1.98 2 3 C1.375 4.9375 1.375 4.9375 0 7 C-3.0859375 7.62890625 -3.0859375 7.62890625 -6 8 C-6.11033706 19.38923617 -5.95043457 30.64570132 -5 42 C-9.82900588 37.17099412 -8.29368245 26.71071299 -8.375 20.3125 C-8.41238281 19.18521484 -8.44976562 18.05792969 -8.48828125 16.89648438 C-8.57606554 8.69840722 -8.57606554 8.69840722 -5.6640625 5.16796875 C-3 4 -3 4 0 5 C0 3.35 0 1.7 0 0 Z " fill="#DFF5FE" transform="translate(95,173)"/>
<path d="M0 0 C-1.37154504 2.95409701 -2.98863724 5.44008376 -5 8 C-6.65 7.67 -8.3 7.34 -10 7 C-10 4.36 -10 1.72 -10 -1 C-6.18510326 -2.46726798 -3.70988378 -1.43336419 0 0 Z " fill="#C7343D" transform="translate(346,226)"/>
<path d="M0 0 C8.05141181 3.02286102 15.11718479 7.9127018 22 13 C21.01 13.495 21.01 13.495 20 14 C17.5249829 12.88568235 15.32116581 11.41849022 13 10 C13.99 11.65 14.98 13.3 16 15 C11.69422496 13.33830526 8.90988145 10.16919694 5.75 6.9375 C5.19570313 6.38255859 4.64140625 5.82761719 4.0703125 5.25585938 C0 1.14043257 0 1.14043257 0 0 Z " fill="#114384" transform="translate(57,120)"/>
<path d="M0 0 C3.30081791 1.61897259 6.52557433 3.35924309 9.75 5.125 C11.22726562 5.93324219 11.22726562 5.93324219 12.734375 6.7578125 C13.48203125 7.16773438 14.2296875 7.57765625 15 8 C14.01 8.495 14.01 8.495 13 9 C12.34 10.32 11.68 11.64 11 13 C7.04 9.37 3.08 5.74 -1 2 C-0.67 1.34 -0.34 0.68 0 0 Z " fill="#E5F6FE" transform="translate(258,272)"/>
<path d="M0 0 C0.33 0 0.66 0 1 0 C1.09796875 0.56847656 1.1959375 1.13695312 1.296875 1.72265625 C2.36323919 7.22914031 3.98284249 11.2731199 7 16 C6.401875 15.835 5.80375 15.67 5.1875 15.5 C2.88655664 14.8885876 2.88655664 14.8885876 0 15 C-0.66 14.34 -1.32 13.68 -2 13 C-2.99 13 -3.98 13 -5 13 C-5.33 11.68 -5.66 10.36 -6 9 C-5.01 8.67 -4.02 8.34 -3 8 C-2.34 8.33 -1.68 8.66 -1 9 C-0.67 6.03 -0.34 3.06 0 0 Z " fill="#E7F5FE" transform="translate(297,309)"/>
<path d="M0 0 C2.45430337 1.33871093 3.86676331 2.50598469 5.75 4.5 C4.96753906 4.63277344 4.18507812 4.76554687 3.37890625 4.90234375 C1.86103516 5.16724609 1.86103516 5.16724609 0.3125 5.4375 C-0.69683594 5.61152344 -1.70617187 5.78554688 -2.74609375 5.96484375 C-5.1787438 6.24751097 -5.1787438 6.24751097 -6.25 7.5 C-7.91617115 7.54063832 -9.58388095 7.542721 -11.25 7.5 C-9.99098546 3.72295638 -8.36974113 2.58136303 -5.16015625 0.38671875 C-3.25 -0.5 -3.25 -0.5 0 0 Z " fill="#03469E" transform="translate(206.25,297.5)"/>
<path d="M0 0 C1.89668064 2.84502097 3.23263478 5.57299885 4.625 8.6875 C5.29402344 10.17830078 5.29402344 10.17830078 5.9765625 11.69921875 C6.31429688 12.45847656 6.65203125 13.21773438 7 14 C3.56068166 12.6926925 0.38699095 11.18963666 -2.8125 9.375 C-3.60269531 8.92898438 -4.39289063 8.48296875 -5.20703125 8.0234375 C-5.79871094 7.68570312 -6.39039063 7.34796875 -7 7 C-5 5.66666667 -3 4.33333333 -1 3 C-0.67 2.01 -0.34 1.02 0 0 Z " fill="#C03640" transform="translate(361,269)"/>
<path d="M0 0 C1.2989839 0.90626784 2.58893167 1.82549537 3.875 2.75 C4.59429687 3.26046875 5.31359375 3.7709375 6.0546875 4.296875 C8.20845058 6.1824989 9.04792478 7.30986117 10 10 C9.58447266 12.65722656 9.58447266 12.65722656 8.6640625 15.640625 C8.18066406 17.24550781 8.18066406 17.24550781 7.6875 18.8828125 C7.336875 19.99398437 6.98625 21.10515625 6.625 22.25 C6.28210938 23.37664062 5.93921875 24.50328125 5.5859375 25.6640625 C4.73691258 28.44697751 3.87454321 31.22501929 3 34 C2.67 34 2.34 34 2 34 C1.82164485 29.45194365 2.00214565 26.1205746 4 22 C3.34 21.67 2.68 21.34 2 21 C3.32 20.67 4.64 20.34 6 20 C5.979375 19.030625 5.95875 18.06125 5.9375 17.0625 C6 14 6 14 7 13 C7.58488562 10.62875402 7.58488562 10.62875402 7 8 C5.03277992 6.61876037 3.03131672 5.28511874 1 4 C0.30859375 1.87890625 0.30859375 1.87890625 0 0 Z " fill="#B33C45" transform="translate(265,109)"/>
<path d="M0 0 C5.0290482 1.50556145 9.48669393 3.65729305 14.125 6.0625 C15.52147089 6.78635876 16.91985402 7.50654279 18.3203125 8.22265625 C18.93148926 8.53984619 19.54266602 8.85703613 20.17236328 9.18383789 C22.11923367 10.05324581 23.89789557 10.63791373 26 11 C26.66 10.67 27.32 10.34 28 10 C28 10.99 28 11.98 28 13 C25.69 13 23.38 13 21 13 C21 12.34 21 11.68 21 11 C19.02 10.34 17.04 9.68 15 9 C15 9.99 15 10.98 15 12 C14.34 11.67 13.68 11.34 13 11 C13 10.34 13 9.68 13 9 C10.85535214 7.43711967 10.85535214 7.43711967 8.1875 5.9375 C7.29417969 5.41027344 6.40085937 4.88304688 5.48046875 4.33984375 C2.98203483 2.89810305 2.98203483 2.89810305 0 2 C0 1.34 0 0.68 0 0 Z " fill="#AF444D" transform="translate(113,100)"/>
<path d="M0 0 C3.26008643 3.16952847 6.22237877 6.39937989 9 10 C8.67 10.66 8.34 11.32 8 12 C7.01 11.67 6.02 11.34 5 11 C4.3125 8.9375 4.3125 8.9375 4 7 C1.52372901 7.63921965 1.52372901 7.63921965 -1 9 C-2.36078035 11.52372901 -2.36078035 11.52372901 -3 14 C-4.37095624 10.30962722 -3.60010967 8.29116165 -2.0625 4.75 C-1.68222656 3.85796875 -1.30195313 2.9659375 -0.91015625 2.046875 C-0.60980469 1.37140625 -0.30945313 0.6959375 0 0 Z " fill="#B83A41" transform="translate(287,122)"/>
<path d="M0 0 C0.66 1.98 1.32 3.96 2 6 C-0.125 6.75 -0.125 6.75 -3 7 C-6.3125 5.0625 -6.3125 5.0625 -9 3 C-8.67 2.01 -8.34 1.02 -8 0 C-5.13822943 -1.43088528 -3.06624227 -0.59991697 0 0 Z " fill="#CD3139" transform="translate(288,234)"/>
<path d="M0 0 C0.66 0.33 1.32 0.66 2 1 C2 1.66 2 2.32 2 3 C2.556875 3.12375 3.11375 3.2475 3.6875 3.375 C6.22114364 4.05976855 8.57921032 4.99133763 11 6 C11 7.32 11 8.64 11 10 C4.67256637 9.51327434 4.67256637 9.51327434 1.625 7.1875 C0.02181649 5.02936836 -0.72479207 3.66034332 -1 1 C-0.67 0.67 -0.34 0.34 0 0 Z " fill="#054798" transform="translate(321,305)"/>
<path d="M0 0 C1.10865985 0.91122727 2.21172219 1.82926659 3.3125 2.75 C3.92738281 3.26046875 4.54226563 3.7709375 5.17578125 4.296875 C7.05932329 6.05538534 8.51573656 7.89919636 10 10 C7.93571843 9.74309819 5.87358906 9.46886954 3.8125 9.1875 C2.66394531 9.03667969 1.51539063 8.88585937 0.33203125 8.73046875 C-3.04289862 7.9905955 -5.24222324 7.06184063 -8 5 C-8 4.34 -8 3.68 -8 3 C-7.34 3 -6.68 3 -6 3 C-5.67 3.66 -5.34 4.32 -5 5 C-1.97065509 5.65772428 -1.97065509 5.65772428 1 6 C0.67 4.02 0.34 2.04 0 0 Z " fill="#B53C43" transform="translate(305,265)"/>
<path d="M0 0 C4.32239956 3.34003602 7.17477391 6.32751069 10 11 C8.68 11 7.36 11 6 11 C6 12.98 6 14.96 6 17 C5.67 17 5.34 17 5 17 C4.87625 15.329375 4.87625 15.329375 4.75 13.625 C4.5025 12.42875 4.255 11.2325 4 10 C2.08235826 8.6237206 2.08235826 8.6237206 0 8 C-0.33 7.34 -0.66 6.68 -1 6 C-0.01 6 0.98 6 2 6 C2 5.01 2 4.02 2 3 C1.34 3 0.68 3 0 3 C0 2.01 0 1.02 0 0 Z " fill="#FCE7E6" transform="translate(259,193)"/>
<path d="M0 0 C4.60477637 1.33332331 8.16230734 3.18928759 12.125 5.875 C13.13820313 6.55304688 14.15140625 7.23109375 15.1953125 7.9296875 C17.72221664 9.794951 19.85668318 11.71311172 22 14 C16.52173913 14.36521739 16.52173913 14.36521739 14.125 12.6875 C13 11 13 11 13 8 C9.7 7.01 6.4 6.02 3 5 C3 4.01 3 3.02 3 2 C2.01 1.67 1.02 1.34 0 1 C0 0.67 0 0.34 0 0 Z " fill="#BB3943" transform="translate(243,95)"/>
<path d="M0 0 C1.65 0.33 3.3 0.66 5 1 C5 1.33 5 1.66 5 2 C3.35 2 1.7 2 0 2 C-0.33 4.64 -0.66 7.28 -1 10 C0.65 10.33 2.3 10.66 4 11 C3.01 11.495 3.01 11.495 2 12 C2.680625 12.763125 3.36125 13.52625 4.0625 14.3125 C4.701875 15.199375 5.34125 16.08625 6 17 C5.67 17.99 5.34 18.98 5 20 C3.46119511 18.45519587 1.94441175 16.8884306 0.4375 15.3125 C-0.40941406 14.44238281 -1.25632812 13.57226562 -2.12890625 12.67578125 C-4 10 -4 10 -3.875 7.34375 C-2.87452385 4.66390317 -1.56881508 2.38732729 0 0 Z " fill="#B73B45" transform="translate(263,183)"/>
<path d="M0 0 C0.33 0 0.66 0 1 0 C0.38273804 5.67355671 -0.27945952 11.33861055 -1 17 C3.95 17 8.9 17 14 17 C14 17.33 14 17.66 14 18 C8.33357449 19.22517308 2.76291482 19.09228867 -3 19 C-2.6920761 16.20775806 -2.37887563 13.41628573 -2.0625 10.625 C-1.97548828 9.8309375 -1.88847656 9.036875 -1.79882812 8.21875 C-1.11328125 2.2265625 -1.11328125 2.2265625 0 0 Z " fill="#0F4483" transform="translate(240,288)"/>
<path d="M0 0 C2.29633824 3.44450737 2.54016485 5.93812283 3 10 C-1.43458973 8.6062718 -3.87378374 6.39417765 -7 3 C-4.69 2.01 -2.38 1.02 0 0 Z " fill="#A74249" transform="translate(128,91)"/>
<path d="M0 0 C7.59 0 15.18 0 23 0 C26 9 26 9 26 12 C25.01 11.67 24.02 11.34 23 11 C22.67 8.03 22.34 5.06 22 2 C14.74 1.67 7.48 1.34 0 1 C0 0.67 0 0.34 0 0 Z " fill="#B53C45" transform="translate(301,190)"/>
<path d="M0 0 C0.66 0 1.32 0 2 0 C2.99 3.3 3.98 6.6 5 10 C-1.93 9.67 -8.86 9.34 -16 9 C-16 8.67 -16 8.34 -16 8 C-10.06 8 -4.12 8 2 8 C2 7.01 2 6.02 2 5 C1.01 4.67 0.02 4.34 -1 4 C-0.67 2.68 -0.34 1.36 0 0 Z " fill="#0F4384" transform="translate(323,317)"/>
<path d="M0 0 C2.31 0.33 4.62 0.66 7 1 C7 2.65 7 4.3 7 6 C7.66 6 8.32 6 9 6 C9 6.66 9 7.32 9 8 C6.69 7.67 4.38 7.34 2 7 C2 6.34 2 5.68 2 5 C1.34 5 0.68 5 0 5 C0 3.35 0 1.7 0 0 Z " fill="#CD3138" transform="translate(300,246)"/>
<path d="M0 0 C1.32 0.66 2.64 1.32 4 2 C3.67 3.65 3.34 5.3 3 7 C2.01 7.33 1.02 7.66 0 8 C0 8.99 0 9.98 0 11 C-0.66 11 -1.32 11 -2 11 C-2.33 8.36 -2.66 5.72 -3 3 C-2.34 3 -1.68 3 -1 3 C-0.67 2.01 -0.34 1.02 0 0 Z " fill="#FEE7E7" transform="translate(146,87)"/>
<path d="M0 0 C4.01719395 4.26066025 4.01719395 4.26066025 3.9375 7.6875 C3 10 3 10 0 12 C-2.6875 11.125 -2.6875 11.125 -5 10 C-4.67 9.01 -4.34 8.02 -4 7 C-2.02 7.495 -2.02 7.495 0 8 C0 5.36 0 2.72 0 0 Z " fill="#B93941" transform="translate(285,172)"/>
<path d="M0 0 C1.46067199 0.45082469 2.91848032 0.91093537 4.375 1.375 C5.18710937 1.63023437 5.99921875 1.88546875 6.8359375 2.1484375 C9 3 9 3 11 5 C8.03 4.505 8.03 4.505 5 4 C4.67 4.99 4.34 5.98 4 7 C3.34 7 2.68 7 2 7 C2 8.98 2 10.96 2 13 C1.67 13 1.34 13 1 13 C0.33459011 8.5916595 0 4.45139547 0 0 Z " fill="#0D4587" transform="translate(297,303)"/>
<path d="M0 0 C0.68707555 2.49064888 1 4.37886292 1 7 C1.804375 7.28875 2.60875 7.5775 3.4375 7.875 C6 9 6 9 7 11 C7.33 9.68 7.66 8.36 8 7 C8.33 9.31 8.66 11.62 9 14 C3.91061189 12.40956621 0.12543357 9.2553049 -4 6 C-2.84826645 3.53199953 -1.95216435 1.95216435 0 0 Z " fill="#0A4589" transform="translate(214,282)"/>
<path d="M0 0 C1.65 0 3.3 0 5 0 C5.0825 0.61875 5.165 1.2375 5.25 1.875 C5.81258459 4.18437567 5.81258459 4.18437567 8.0625 5.25 C8.701875 5.4975 9.34125 5.745 10 6 C10 6.99 10 7.98 10 9 C5.98720812 8.3826474 3.14509642 6.50178124 0 4 C0 2.68 0 1.36 0 0 Z " fill="#CD3035" transform="translate(309,254)"/>
<path d="M0 0 C0.33 0.99 0.66 1.98 1 3 C-0.9375 5.6875 -0.9375 5.6875 -3 8 C-4.98 6.35 -6.96 4.7 -9 3 C-5.92807025 0.26939578 -4.09590633 -0.34132553 0 0 Z " fill="#B63B43" transform="translate(366,242)"/>
<path d="M0 0 C3.37832691 4.50443587 3.34230131 5.49224678 3.14453125 10.8828125 C3.12283371 11.53829071 3.10113617 12.19376892 3.07878113 12.86911011 C3.0296528 14.24945265 2.9728808 15.62954181 2.90893555 17.00927734 C2.81252682 19.12441153 2.74330062 21.23917703 2.67773438 23.35546875 C2.28310381 33.71689619 2.28310381 33.71689619 0 36 C0 24.12 0 12.24 0 0 Z " fill="#FED8D8" transform="translate(328,204)"/>
<path d="M0 0 C0 0.66 0 1.32 0 2 C-1.98 2.33 -3.96 2.66 -6 3 C-5.67 4.32 -5.34 5.64 -5 7 C-3.35 7.33 -1.7 7.66 0 8 C0 8.66 0 9.32 0 10 C-2.64 9.67 -5.28 9.34 -8 9 C-8.66 6.69 -9.32 4.38 -10 2 C-6.38026598 0.68373308 -3.90432869 0 0 0 Z " fill="#0F438A" transform="translate(282,303)"/>
<path d="M0 0 C2.475 0.99 2.475 0.99 5 2 C4.67 3.98 4.34 5.96 4 8 C0.48283697 8 -0.37121748 7.17554415 -3 5 C-2.67 4.01 -2.34 3.02 -2 2 C-1.34 2 -0.68 2 0 2 C0 1.34 0 0.68 0 0 Z " fill="#CD313B" transform="translate(257,214)"/>
<path d="M0 0 C0.33 0 0.66 0 1 0 C1.0270043 1.45823212 1.04639787 2.91660675 1.0625 4.375 C1.07410156 5.18710937 1.08570313 5.99921875 1.09765625 6.8359375 C1 9 1 9 0 11 C7.92 10.505 7.92 10.505 16 10 C14.02 10.99 14.02 10.99 12 12 C11.67 12.66 11.34 13.32 11 14 C11 13.34 11 12.68 11 12 C5.06 12.495 5.06 12.495 -1 13 C-1.33 11.35 -1.66 9.7 -2 8 C-1.34 8 -0.68 8 0 8 C0 5.36 0 2.72 0 0 Z " fill="#DAEFFE" transform="translate(237,296)"/>
<path d="M0 0 C3.99452176 1.36955032 6.92159754 3.0926199 10 6 C10.8125 8.25 10.8125 8.25 11 10 C9.35 10 7.7 10 6 10 C6 8.68 6 7.36 6 6 C5.01 6.33 4.02 6.66 3 7 C2.67 6.01 2.34 5.02 2 4 C2.33 3.67 2.66 3.34 3 3 C2.01 2.67 1.02 2.34 0 2 C0 1.34 0 0.68 0 0 Z " fill="#08468F" transform="translate(306,291)"/>
<path d="M0 0 C0.1875 3.375 0.1875 3.375 0 7 C-0.99 7.66 -1.98 8.32 -3 9 C-3.99 8.67 -4.98 8.34 -6 8 C-6.3125 5.6875 -6.3125 5.6875 -6 3 C-1.96551724 0 -1.96551724 0 0 0 Z " fill="#0C4586" transform="translate(234,276)"/>
<path d="M0 0 C3 3.75 3 3.75 3 6 C4.32 6.66 5.64 7.32 7 8 C4.875 9.25 4.875 9.25 2 10 C-1.3125 8.125 -1.3125 8.125 -4 6 C-3.01 5.34 -2.02 4.68 -1 4 C-0.27617533 1.94074861 -0.27617533 1.94074861 0 0 Z " fill="#FEEAEB" transform="translate(349,269)"/>
<path d="M0 0 C2.475 0.495 2.475 0.495 5 1 C5 1.66 5 2.32 5 3 C6.65 3.33 8.3 3.66 10 4 C10 4.99 10 5.98 10 7 C10.66 7.33 11.32 7.66 12 8 C12 8.99 12 9.98 12 11 C8.16735822 9.4943193 6.462238 7.23168738 4 4 C2.68505488 2.64852862 1.35735142 1.30887458 0 0 Z " fill="#BA3943" transform="translate(234,204)"/>
<path d="M0 0 C2 1 2 1 2.8125 2.8125 C4.35393541 5.65198628 6.42404696 7.10192934 9 9 C8.34 9 7.68 9 7 9 C6.67 9.99 6.34 10.98 6 12 C5.67 10.68 5.34 9.36 5 8 C4.01 8.33 3.02 8.66 2 9 C1.87625 8.071875 1.87625 8.071875 1.75 7.125 C1.18741541 4.81562433 1.18741541 4.81562433 -1.0625 3.75 C-1.701875 3.5025 -2.34125 3.255 -3 3 C-2.01 2.01 -1.02 1.02 0 0 Z " fill="#CF3039" transform="translate(323,260)"/>
<path d="M0 0 C5.82665994 3.80351413 11.48221873 7.76017897 17 12 C16.01 12.33 15.02 12.66 14 13 C9.07142857 9.71428571 9.07142857 9.71428571 7 8 C7 7.34 7 6.68 7 6 C6.21625 5.938125 5.4325 5.87625 4.625 5.8125 C3.75875 5.544375 2.8925 5.27625 2 5 C0.8359375 2.44921875 0.8359375 2.44921875 0 0 Z " fill="#B53C42" transform="translate(250,206)"/>
<path d="M0 0 C3.94139078 1.66751148 6.7892812 4.22710649 10 7 C9.01 7.495 9.01 7.495 8 8 C7.01 7.67 6.02 7.34 5 7 C2.94729537 8.84188612 2.94729537 8.84188612 2 11 C0.68 9.35 -0.64 7.7 -2 6 C-0.68 6 0.64 6 2 6 C2 5.01 2 4.02 2 3 C1.34 2.67 0.68 2.34 0 2 C0 1.34 0 0.68 0 0 Z " fill="#D9E9F2" transform="translate(71,135)"/>
<path d="M0 0 C9.59453303 0.59453303 9.59453303 0.59453303 13 4 C10.69 3.67 8.38 3.34 6 3 C6.33 4.32 6.66 5.64 7 7 C3.17053157 5.54744301 1.87949705 3.57104439 0 0 Z " fill="#BA3941" transform="translate(96,107)"/>
<path d="M0 0 C3.75376152 1.25125384 4.24073289 2.5652404 6 6 C6 6.66 6 7.32 6 8 C3.03 7.505 3.03 7.505 0 7 C-1.125 2.25 -1.125 2.25 0 0 Z " fill="#114484" transform="translate(322,331)"/>
<path d="M0 0 C5.27112904 2.79692561 9.59398317 5.98235547 14 10 C9.9883804 10 7.57906142 8.09512932 4.3125 6 C3.70599609 5.6184375 3.09949219 5.236875 2.47460938 4.84375 C0.97928801 3.90181528 -0.51086593 2.95168625 -2 2 C-1.34 1.34 -0.68 0.68 0 0 Z " fill="#A44348" transform="translate(386,307)"/>
<path d="M0 0 C0.66 1.32 1.32 2.64 2 4 C0.92173635 5.27513763 -0.16285519 6.54492569 -1.25 7.8125 C-1.85328125 8.52019531 -2.4565625 9.22789062 -3.078125 9.95703125 C-4.92370398 11.91889671 -6.79945332 13.45669625 -9 15 C-8.34 13.35 -7.68 11.7 -7 10 C-6.34 10 -5.68 10 -5 10 C-4.34 8.02 -3.68 6.04 -3 4 C-2.01 4 -1.02 4 0 4 C0 2.68 0 1.36 0 0 Z " fill="#B63A45" transform="translate(257,175)"/>
<path d="M0 0 C1.89213369 2.38573379 3.02391783 4.07175348 4 7 C2.02 7.99 2.02 7.99 0 9 C-1.65 7.68 -3.3 6.36 -5 5 C-4.360625 4.731875 -3.72125 4.46375 -3.0625 4.1875 C-0.66868314 3.11332248 -0.66868314 3.11332248 0 0 Z " fill="#FFE6E9" transform="translate(137,103)"/>
<path d="M0 0 C0.66 0.33 1.32 0.66 2 1 C1.175 1.5775 0.35 2.155 -0.5 2.75 C-1.325 3.4925 -2.15 4.235 -3 5 C-3 6.32 -3 7.64 -3 9 C-7.455 9.495 -7.455 9.495 -12 10 C-8.40945767 6.11024581 -4.26101118 3.10267805 0 0 Z " fill="#1F4C86" transform="translate(199,298)"/>
<path d="M0 0 C3.80635497 3.20760251 7.54563567 6.40746109 11 10 C9.1875 11.5625 9.1875 11.5625 7 13 C6.01 12.67 5.02 12.34 4 12 C5.32 11.67 6.64 11.34 8 11 C8 10.01 8 9.02 8 8 C6.68 7.67 5.36 7.34 4 7 C3.67 7.66 3.34 8.32 3 9 C2 6 1 3 0 0 Z " fill="#114488" transform="translate(270,286)"/>
<path d="M0 0 C7.07969902 1.62391487 11.89563085 3.77731766 17 9 C16.01 9.495 16.01 9.495 15 10 C14.34 9.67 13.68 9.34 13 9 C13 8.34 13 7.68 13 7 C11.700625 6.5978125 11.700625 6.5978125 10.375 6.1875 C1.53932584 3.07865169 1.53932584 3.07865169 0 0 Z " fill="#0E4486" transform="translate(229,238)"/>
<path d="M0 0 C0 0.99 0 1.98 0 3 C1.051875 2.938125 1.051875 2.938125 2.125 2.875 C5.38371628 3.01668332 7.9559947 3.86734686 11 5 C11 5.66 11 6.32 11 7 C4.82777121 5.75971762 -1.06682122 4.10396411 -7 2 C-4.35261084 0.5393715 -3.10551666 0 0 0 Z " fill="#B63B42" transform="translate(269,174)"/>
<path d="M0 0 C1.6875 0.875 1.6875 0.875 2.6875 2.875 C0.3775 2.875 -1.9325 2.875 -4.3125 2.875 C-4.003125 4.0196875 -4.003125 4.0196875 -3.6875 5.1875 C-3.3125 7.875 -3.3125 7.875 -5.3125 10.875 C-6.3025 8.565 -7.2925 6.255 -8.3125 3.875 C-2.93434874 -0.15861345 -2.93434874 -0.15861345 0 0 Z " fill="#B53C47" transform="translate(145.3125,98.125)"/>
<path d="M0 0 C0 0.99 0 1.98 0 3 C0.66 3 1.32 3 2 3 C2.33 3.99 2.66 4.98 3 6 C2.46632813 5.79503906 1.93265625 5.59007812 1.3828125 5.37890625 C-4.41395572 3.282843 -9.85732066 2.37189499 -16 2 C-16 1.67 -16 1.34 -16 1 C-13.89594609 0.83191581 -11.79175242 0.66558052 -9.6875 0.5 C-8.51574219 0.4071875 -7.34398437 0.314375 -6.13671875 0.21875 C-4.094806 0.07635011 -2.0468721 0 0 0 Z " fill="#B63B42" transform="translate(353,284)"/>
<path d="M0 0 C3 4 3 4 3 6 C2.34 6 1.68 6 1 6 C1 5.34 1 4.68 1 4 C-1.97 4 -4.94 4 -8 4 C-8.33 4.66 -8.66 5.32 -9 6 C-9.33 5.01 -9.66 4.02 -10 3 C-5.05 1.515 -5.05 1.515 0 0 Z " fill="#B53B46" transform="translate(358,263)"/>
<path d="M0 0 C-0.33 0.99 -0.66 1.98 -1 3 C-1.99 2.34 -2.98 1.68 -4 1 C-5.32 1 -6.64 1 -8 1 C-8.33 2.65 -8.66 4.3 -9 6 C-7.35 6 -5.7 6 -4 6 C-4.33 6.66 -4.66 7.32 -5 8 C-6.65 7.67 -8.3 7.34 -10 7 C-10 4.36 -10 1.72 -10 -1 C-6.18510326 -2.46726798 -3.70988378 -1.43336419 0 0 Z " fill="#AF3D48" transform="translate(346,226)"/>
<path d="M0 0 C3.59075147 1.33370769 6.84621398 2.80987082 10 5 C10.33 5.99 10.66 6.98 11 8 C10.01 8.495 10.01 8.495 9 9 C7.68103535 8.07161713 6.37001311 7.13194268 5.0625 6.1875 C4.33160156 5.66542969 3.60070312 5.14335937 2.84765625 4.60546875 C1 3 1 3 0 0 Z " fill="#02479D" transform="translate(69,129)"/>
<path d="M0 0 C2.31 0.66 4.62 1.32 7 2 C7 4.31 7 6.62 7 9 C4.03595495 6.19195732 1.55500981 3.81684226 0 0 Z " fill="#0B458E" transform="translate(109,258)"/>
<path d="M0 0 C6.57534861 0.62031591 12.66692592 2.14897283 19 4 C19 4.33 19 4.66 19 5 C17.27054347 4.85764543 15.54144346 4.71095618 13.8125 4.5625 C12.36810547 4.44068359 12.36810547 4.44068359 10.89453125 4.31640625 C7.09310327 3.90086554 3.62809261 3.2093642 0 2 C0 1.34 0 0.68 0 0 Z " fill="#0E4388" transform="translate(172,209)"/>
<path d="M0 0 C1.65 0 3.3 0 5 0 C5.66 1.65 6.32 3.3 7 5 C5.02 5 3.04 5 1 5 C0.67 3.35 0.34 1.7 0 0 Z " fill="#CD313A" transform="translate(299,266)"/>
<path d="M0 0 C1.27609323 0.90933009 2.54565553 1.82782853 3.8125 2.75 C4.87404297 3.51570312 4.87404297 3.51570312 5.95703125 4.296875 C8.02977691 6.02482358 9.47375854 7.78526476 11 10 C10.01 11.485 10.01 11.485 9 13 C7.68227638 11.40012144 6.37098863 9.79494034 5.0625 8.1875 C4.33160156 7.29417969 3.60070312 6.40085938 2.84765625 5.48046875 C1 3 1 3 0 0 Z " fill="#154279" transform="translate(74,145)"/>
<path d="M0 0 C0.66 0.33 1.32 0.66 2 1 C2 3.97 2 6.94 2 10 C1 8 0 6 -1 4 C-3.31 4.66 -5.62 5.32 -8 6 C-8 5.34 -8 4.68 -8 4 C-6.66666667 3.33333333 -5.33333333 2.66666667 -4 2 C-3.29875 1.608125 -2.5975 1.21625 -1.875 0.8125 C-1.25625 0.544375 -0.6375 0.27625 0 0 Z " fill="#FEE8E7" transform="translate(129,88)"/>
<path d="M0 0 C1 2 1 2 0.1875 5.0625 C-1 8 -1 8 -3 9 C-4.76462683 5.91190305 -5 4.76687864 -5 1 C-3.35 0.67 -1.7 0.34 0 0 Z " fill="#C2363F" transform="translate(355,266)"/>
<path d="M0 0 C0.49628906 0.26554688 0.99257812 0.53109375 1.50390625 0.8046875 C5.94978522 3.11620712 10.13900324 4.78475081 15 6 C15 6.33 15 6.66 15 7 C9.06997733 7.37851209 4.52760359 6.10575375 -1 4 C-0.67 2.68 -0.34 1.36 0 0 Z " fill="#0C4589" transform="translate(252,252)"/>
<path d="M0 0 C1.98 0 3.96 0 6 0 C6.33 1.32 6.66 2.64 7 4 C4.69 4.33 2.38 4.66 0 5 C0 3.35 0 1.7 0 0 Z " fill="#FBFCFB" transform="translate(260,177)"/>
<path d="M0 0 C1.98 0.99 3.96 1.98 6 3 C5.01 3.66 4.02 4.32 3 5 C2.34 4.67 1.68 4.34 1 4 C0.67 4.99 0.34 5.98 0 7 C-1.98 5.35 -3.96 3.7 -6 2 C-4 2 -2 2 0 2 C0 1.34 0 0.68 0 0 Z " fill="#0C4489" transform="translate(79,134)"/>
<path d="M0 0 C1.81618856 1.11903546 3.62785526 2.24541284 5.4375 3.375 C6.95150391 4.31472656 6.95150391 4.31472656 8.49609375 5.2734375 C11 7 11 7 12 9 C7.1725201 7.58707905 3.2837641 5.57025846 -1 3 C-0.67 2.01 -0.34 1.02 0 0 Z " fill="#17437A" transform="translate(349,324)"/>
<path d="M0 0 C2.9719385 1.12451727 5.33440687 2.22293791 8 4 C7.67 4.99 7.34 5.98 7 7 C4.525 6.01 4.525 6.01 2 5 C2 4.34 2 3.68 2 3 C1.34 3 0.68 3 0 3 C0 2.01 0 1.02 0 0 Z " fill="#CC3138" transform="translate(353,284)"/>
<path d="M0 0 C0.99 0.33 1.98 0.66 3 1 C3 2.32 3 3.64 3 5 C3.99 5.33 4.98 5.66 6 6 C6.6875 8.0625 6.6875 8.0625 7 10 C7.66 10 8.32 10 9 10 C9 10.66 9 11.32 9 12 C7.171875 11.77734375 7.171875 11.77734375 5 11 C3.515625 9.00390625 3.515625 9.00390625 2.25 6.5625 C1.82203125 5.75941406 1.3940625 4.95632813 0.953125 4.12890625 C0 2 0 2 0 0 Z " fill="#B73A45" transform="translate(328,273)"/>
<path d="M0 0 C0.33 0.99 0.66 1.98 1 3 C3.50447516 4.21869929 3.50447516 4.21869929 6 5 C5.01 5.33 4.02 5.66 3 6 C3 6.66 3 7.32 3 8 C0.11562221 6.70700306 -1.87219421 5.34058637 -4 3 C-3.01 3 -2.02 3 -1 3 C-0.67 2.01 -0.34 1.02 0 0 Z " fill="#FFE4E6" transform="translate(284,224)"/>
<path d="M0 0 C-1.31778453 2.63556905 -3.14219898 4.72269553 -5 7 C-5.99 5.02 -6.98 3.04 -8 1 C-2.25 -1.125 -2.25 -1.125 0 0 Z " fill="#0C4586" transform="translate(297,322)"/>
<path d="M0 0 C1.9375 0.625 1.9375 0.625 4 2 C4.75 5.125 4.75 5.125 5 8 C2.11562221 6.70700306 0.12780579 5.34058637 -2 3 C-1.34 2.67 -0.68 2.34 0 2 C0 1.34 0 0.68 0 0 Z " fill="#B33C46" transform="translate(259,201)"/>
<path d="M0 0 C0.99 0.33 1.98 0.66 3 1 C2.95875 1.928125 2.9175 2.85625 2.875 3.8125 C2.72863661 7.15809719 2.72863661 7.15809719 5 10 C1.17475764 8.549046 -0.19090966 6.61818068 -2 3 C-2 2.34 -2 1.68 -2 1 C-1.34 0.67 -0.68 0.34 0 0 Z " fill="#0A468C" transform="translate(301,315)"/>
<path d="M0 0 C0.66 0.33 1.32 0.66 2 1 C1.67 1.99 1.34 2.98 1 4 C2.32 4.33 3.64 4.66 5 5 C2.69 5.33 0.38 5.66 -2 6 C-2.99 4.68 -3.98 3.36 -5 2 C-2.625 0.9375 -2.625 0.9375 0 0 Z " fill="#E0F4FE" transform="translate(277,298)"/>
<path d="M0 0 C6.52307692 1.47692308 6.52307692 1.47692308 8.9375 4.125 C9.288125 4.74375 9.63875 5.3625 10 6 C9.071875 5.649375 8.14375 5.29875 7.1875 4.9375 C4.0197047 3.67617372 4.0197047 3.67617372 1 5 C1 4.34 1 3.68 1 3 C0.34 3 -0.32 3 -1 3 C-0.67 2.01 -0.34 1.02 0 0 Z " fill="#0E4087" transform="translate(254,269)"/>
<path d="M0 0 C1.32 0 2.64 0 4 0 C4.1875 2.375 4.1875 2.375 4 5 C3.01 5.66 2.02 6.32 1 7 C0.34 6.67 -0.32 6.34 -1 6 C-0.67 4.02 -0.34 2.04 0 0 Z " fill="#D9B0B6" transform="translate(344,213)"/>
<path d="M0 0 C3.9492568 0.55105909 7.34920174 1.38935371 11 3 C10.625 4.9375 10.625 4.9375 10 7 C9.01 7.495 9.01 7.495 8 8 C8 6.68 8 5.36 8 4 C5.36 3.34 2.72 2.68 0 2 C0 1.34 0 0.68 0 0 Z " fill="#B33C41" transform="translate(279,189)"/>
<path d="M0 0 C2.3125 0.1875 2.3125 0.1875 5 1 C6.625 3.4375 6.625 3.4375 8 6 C8.99 6.66 9.98 7.32 11 8 C11 8.66 11 9.32 11 10 C7.81326038 8.59698853 5.67778594 6.92234929 3.25 4.4375 C2.63640625 3.81746094 2.0228125 3.19742187 1.390625 2.55859375 C0 1 0 1 0 0 Z " fill="#0F4485" transform="translate(116,267)"/>
<path d="M0 0 C1.98 0.66 3.96 1.32 6 2 C6 2.66 6 3.32 6 4 C6.99 4 7.98 4 9 4 C9.66 5.32 10.32 6.64 11 8 C6.69235185 6.43358249 2.93828536 4.31663844 -1 2 C-0.67 1.34 -0.34 0.68 0 0 Z " fill="#B63C44" transform="translate(149,137)"/>
<path d="M0 0 C3.78099386 0.3911373 5.59391036 2.1642515 8 5 C8 5.66 8 6.32 8 7 C4.06326356 5.68775452 1.77280706 4.08089673 -1 1 C-0.67 0.67 -0.34 0.34 0 0 Z " fill="#C83239" transform="translate(363,291)"/>
<path d="M0 0 C0.99 0 1.98 0 3 0 C3.33 1.65 3.66 3.3 4 5 C2.68 5.33 1.36 5.66 0 6 C-0.38218767 4.34385343 -0.71395102 2.67542976 -1 1 C-0.67 0.67 -0.34 0.34 0 0 Z " fill="#134287" transform="translate(83,170)"/>
<path d="M0 0 C1.65 0 3.3 0 5 0 C5 0.66 5 1.32 5 2 C5.66 2 6.32 2 7 2 C6.67 3.32 6.34 4.64 6 6 C5.34 6 4.68 6 4 6 C4 5.01 4 4.02 4 3 C2.68 3 1.36 3 0 3 C0 2.01 0 1.02 0 0 Z " fill="#02479F" transform="translate(80,138)"/>
<path d="M0 0 C0.66 0.33 1.32 0.66 2 1 C0.5 3.0625 0.5 3.0625 -2 5 C-4.82406647 5.05928384 -7.20225927 4.55954815 -10 4 C-9.67 3.01 -9.34 2.02 -9 1 C-7.02 1.66 -5.04 2.32 -3 3 C-2.01 2.01 -1.02 1.02 0 0 Z " fill="#B83B47" transform="translate(124,112)"/>
<path d="M0 0 C3.63 0.33 7.26 0.66 11 1 C11 1.99 11 2.98 11 4 C10.01 4.495 10.01 4.495 9 5 C6.8359375 4.22265625 6.8359375 4.22265625 4.375 3.0625 C3.55773437 2.68222656 2.74046875 2.30195312 1.8984375 1.91015625 C1.27195312 1.60980469 0.64546875 1.30945313 0 1 C0 0.67 0 0.34 0 0 Z " fill="#FEE7E6" transform="translate(111,111)"/>
<path d="M0 0 C0.66 0 1.32 0 2 0 C2 1.65 2 3.3 2 5 C0.35 5.33 -1.3 5.66 -3 6 C-2.42655063 3.13275314 -2.1385485 2.1385485 0 0 Z " fill="#D195A1" transform="translate(378,270)"/>
<path d="M0 0 C3 1 3 1 4.1875 2.6875 C5.19313465 5.54969093 5.13689641 7.98827908 5 11 C2.03947516 7.63576723 1.07710178 4.30840713 0 0 Z " fill="#0D4387" transform="translate(96,234)"/>
<path d="M0 0 C2.375 0.1875 2.375 0.1875 5 1 C6.3125 3.5625 6.3125 3.5625 7 6 C6.34 6 5.68 6 5 6 C5 5.34 5 4.68 5 4 C3.35 3.67 1.7 3.34 0 3 C0 2.01 0 1.02 0 0 Z " fill="#CD3136" transform="translate(102,110)"/>
<path d="M0 0 C3.7952131 1.49097658 5.61042731 3.75700849 8 7 C7.67 7.66 7.34 8.32 7 9 C5.62437146 7.71034824 4.29233607 6.37310707 3 5 C3 4.34 3 3.68 3 3 C2.01 2.67 1.02 2.34 0 2 C0 1.34 0 0.68 0 0 Z " fill="#FEE6E7" transform="translate(321,268)"/>
<path d="M0 0 C0.33 0.99 0.66 1.98 1 3 C1.78375 3.103125 2.5675 3.20625 3.375 3.3125 C6 4 6 4 8 7 C3.80639551 6.32902328 0.59665648 4.1441606 -3 2 C-2.01 1.34 -1.02 0.68 0 0 Z " fill="#B53D42" transform="translate(301,233)"/>
<path d="M0 0 C3.81684226 1.55500981 6.19195732 4.03595495 9 7 C6.75 7.3125 6.75 7.3125 4 7 C0 2.89189189 0 2.89189189 0 0 Z " fill="#FEE8E7" transform="translate(89,104)"/>
<path d="M0 0 C5.75 1.75 5.75 1.75 8 4 C4.04 4 0.08 4 -4 4 C-2.68 2.68 -1.36 1.36 0 0 Z " fill="#0F4484" transform="translate(205,294)"/>
<path d="M0 0 C4.35535069 1.16142685 6.64619703 2.07699505 9 6 C6.1875 5.8125 6.1875 5.8125 3 5 C1.125 2.4375 1.125 2.4375 0 0 Z " fill="#154379" transform="translate(312,282)"/>
<path d="M0 0 C0.66 0.99 1.32 1.98 2 3 C-0.87164566 5.70272533 -2.30991841 6.94791837 -6.3125 7.25 C-7.199375 7.1675 -8.08625 7.085 -9 7 C-9 6.34 -9 5.68 -9 5 C-8.2575 5.103125 -7.515 5.20625 -6.75 5.3125 C-3.74927133 5.2745414 -3.74927133 5.2745414 -1.6875 2.5 C-1.130625 1.675 -0.57375 0.85 0 0 Z " fill="#FEE7E7" transform="translate(345,228)"/>
<path d="M0 0 C0 0.99 0 1.98 0 3 C-0.495 3.474375 -0.99 3.94875 -1.5 4.4375 C-3.46168789 6.11993064 -3.46168789 6.11993064 -3 10 C-4.32 9.34 -5.64 8.68 -7 8 C-6.02133662 6.85373678 -5.04205413 5.70800212 -4.0625 4.5625 C-3.51722656 3.92441406 -2.97195312 3.28632813 -2.41015625 2.62890625 C-1.63204305 1.73008851 -0.84063472 0.84063472 0 0 Z " fill="#FFE8E5" transform="translate(255,183)"/>
<path d="M0 0 C1.953125 0.6484375 1.953125 0.6484375 4 2 C4.609375 4.6015625 4.609375 4.6015625 4.75 7.625 C4.80671875 8.62789062 4.8634375 9.63078125 4.921875 10.6640625 C4.94765625 11.43492187 4.9734375 12.20578125 5 13 C2.5705484 9.3558226 2.83820425 7.28758728 3 3 C2.01 2.67 1.02 2.34 0 2 C0 1.34 0 0.68 0 0 Z " fill="#FEE0DF" transform="translate(165,148)"/>
<path d="M0 0 C3.82097239 0.53069061 6.06171403 1.49701566 9 4 C8.34 4 7.68 4 7 4 C6.67 4.66 6.34 5.32 6 6 C3.97945196 4.35830472 1.97956942 2.69088222 0 1 C0 0.67 0 0.34 0 0 Z " fill="#AC3F4B" transform="translate(86,100)"/>
<path d="M0 0 C0.99 0.99 1.98 1.98 3 3 C2.34 4.32 1.68 5.64 1 7 C0.01 6.67 -0.98 6.34 -2 6 C-1.125 1.125 -1.125 1.125 0 0 Z " fill="#AC3F48" transform="translate(146,87)"/>
<path d="M0 0 C-1.32 1.32 -2.64 2.64 -4 4 C-5.98 3.34 -7.96 2.68 -10 2 C-3.72972973 -1.24324324 -3.72972973 -1.24324324 0 0 Z " fill="#E2F3FF" transform="translate(272,302)"/>
<path d="M0 0 C2.6465335 2.6465335 3.59941997 5.56221264 5 9 C2.08482708 7.92598892 0.22189824 7.22189824 -2 5 C-1.34 5 -0.68 5 0 5 C0 3.35 0 1.7 0 0 Z " fill="#A94149" transform="translate(363,274)"/>
<path d="M0 0 C1.6396875 0.2475 1.6396875 0.2475 3.3125 0.5 C6.87525873 1.06718184 6.87525873 1.06718184 10 1 C10 2.32 10 3.64 10 5 C5 3 5 3 0 1 C0 0.67 0 0.34 0 0 Z " fill="#B83B43" transform="translate(314,242)"/>
<path d="M0 0 C-0.99 1.485 -0.99 1.485 -2 3 C-4.31 2.67 -6.62 2.34 -9 2 C-4 -1.33333333 -4 -1.33333333 0 0 Z " fill="#C23742" transform="translate(205,171)"/>
<path d="M0 0 C2.02054804 1.64169528 4.02043058 3.30911778 6 5 C6 5.33 6 5.66 6 6 C4.02 6 2.04 6 0 6 C0 4.02 0 2.04 0 0 Z " fill="#0B468E" transform="translate(122,164)"/>
<path d="M0 0 C1.65 0 3.3 0 5 0 C5 1.65 5 3.3 5 5 C3.0625 4.1875 3.0625 4.1875 1 3 C0.67 2.01 0.34 1.02 0 0 Z " fill="#C73241" transform="translate(125,94)"/>
<path d="M0 0 C1.98 0.99 3.96 1.98 6 3 C2.42355152 4.2380014 -0.33694766 3.74926071 -4 3 C-2.68 2.01 -1.36 1.02 0 0 Z " fill="#DBF4FF" transform="translate(207,286)"/>
<path d="M0 0 C1.65 0.33 3.3 0.66 5 1 C5 1.66 5 2.32 5 3 C2.69 3.33 0.38 3.66 -2 4 C-1.34 2.68 -0.68 1.36 0 0 Z " fill="#0C4488" transform="translate(205,284)"/>
<path d="M0 0 C0.99 0.33 1.98 0.66 3 1 C3.33 2.65 3.66 4.3 4 6 C2.68 5.34 1.36 4.68 0 4 C0 2.66666667 0 1.33333333 0 0 Z " fill="#09458E" transform="translate(128,275)"/>
<path d="M0 0 C1.68496298 0.96885372 3.35178756 1.96986723 5 3 C5 3.33 5 3.66 5 4 C3.02 4.33 1.04 4.66 -1 5 C-1.66 4.01 -2.32 3.02 -3 2 C-2.34 2 -1.68 2 -1 2 C-0.67 1.34 -0.34 0.68 0 0 Z " fill="#09458F" transform="translate(117,160)"/>
<path d="M0 0 C0.66 0 1.32 0 2 0 C2.33 1.98 2.66 3.96 3 6 C2.01 6.33 1.02 6.66 0 7 C0 4.69 0 2.38 0 0 Z " fill="#C33443" transform="translate(282,136)"/>
<path d="M0 0 C0.33 0.66 0.66 1.32 1 2 C1.99 1.67 2.98 1.34 4 1 C6.1875 1.9375 6.1875 1.9375 8 3 C8 3.33 8 3.66 8 4 C2.46153846 4.36923077 2.46153846 4.36923077 0.125 2.5 C-0.24625 2.005 -0.6175 1.51 -1 1 C-0.67 0.67 -0.34 0.34 0 0 Z " fill="#BD3A44" transform="translate(110,118)"/>
</svg>
